#!OML:ASF F:\VICON\USERDATA\INSTALL\rory3\rory3.ASF
:FULLY-SPECIFIED
:DEGREES
511
root 4.65895 15.8094 -7.39724 29.7054 -46.5293 -9.13156
lowerback -5.61428 1.03945 -0.804523
upperback -8.5662 1.11632 -2.766
thorax -5.72595 0.437192 -2.41917
lowerneck -9.35067 2.88394 6.42423
upperneck 43.1893 -0.375337 4.16183
head 17.6292 1.00621 0.563208
rclavicle -7.26558e-014 1.59028e-015
rhumerus 58.5897 -41.417 -10.737
rradius 69.136
rwrist -26.7719
rhand 15.9294 2.01447
rfingers 7.12502
rthumb 40.7257 -22.9885
lclavicle -7.26558e-014 1.59028e-015
lhumerus -64.3653 -26.3171 107.766
lradius 26.2558
lwrist 4.72764
lhand 13.1657 19.3136
lfingers 7.12502
lthumb 38.1223 45.0794
rfemur 156.421 -184.432 -146.96
rtibia 36.2375
rfoot -48.3975 -33.0609
rtoes 5.13563
lfemur -72.9296 23.2576 -40.3379
ltibia 54.7239
lfoot -38.8122 33.2593
ltoes 23.8889
512
root 4.70254 15.8102 -7.47128 29.6096 -46.6942 -9.22386
lowerback -5.18964 0.92417 -0.839615
upperback -8.62205 0.964783 -2.4839
thorax -6.03578 0.372429 -2.11443
lowerneck -9.21338 3.07905 6.48783
upperneck 43.2773 0.0773917 3.76193
head 17.6424 1.14661 0.442357
rclavicle -7.40473e-014 -3.81667e-014
rhumerus 57.0057 -42.0666 -9.83595
rradius 71.6319
rwrist -27.3285
rhand 13.8954 3.11142
rfingers 7.12502
rthumb 38.8109 -22.4625
lclavicle -7.40473e-014 -3.81667e-014
lhumerus -66.163 -27.4762 110.586
lradius 28.1143
lwrist 7.0684
lhand 13.4345 18.5715
lfingers 7.12502
lthumb 38.3761 44.2674
rfemur 156.329 -184.045 -146.929
rtibia 36.2876
rfoot -48.3631 -31.8764
rtoes 6.73836
lfemur -73.1736 23.3954 -40.2706
ltibia 54.8967
lfoot -39.1201 32.9328
ltoes 24.7729
513
root 4.7508 15.8154 -7.55045 29.0574 -46.6183 -8.57632
lowerback -4.77761 0.591341 -1.29119
upperback -8.64389 0.519762 -2.29689
thorax -6.31339 0.183829 -1.67099
lowerneck -9.29798 3.30733 6.65843
upperneck 43.353 0.527348 3.37478
head 17.7156 1.30753 0.311081
rclavicle -7.35503e-015 -7.95139e-015
rhumerus 55.8616 -42.7225 -9.53678
rradius 73.9461
rwrist -27.7638
rhand 11.9687 4.22395
rfingers 7.12502
rthumb 36.9911 -21.8428
lclavicle -7.35503e-015 -7.95139e-015
lhumerus -67.6593 -28.4568 112.819
lradius 29.9467
lwrist 9.20587
lhand 14.8464 17.1701
lfingers 7.12502
lthumb 39.7071 42.4839
rfemur 156.172 -183.48 -147.34
rtibia 36.2226
rfoot -48.4029 -30.4173
rtoes 9.86866
lfemur -73.3892 23.2653 -40.8101
ltibia 55.0492
lfoot -38.7614 32.9013
ltoes 25.4703
514
root 4.77151 15.8044 -7.5656 30.3303 -46.5029 -10.5132
lowerback -5.22805 0.619789 0.347304
upperback -8.47214 0.582866 -1.80219
thorax -5.85546 0.137502 -2.06398
lowerneck -9.81664 3.51348 6.93537
upperneck 43.6935 0.79864 3.09353
head 18.0743 1.43226 0.192849
rclavicle 2.21645e-014 2.70347e-014
rhumerus 54.6103 -43.458 -9.2785
rradius 76.0766
rwrist -27.9428
rhand 10.3491 6.08893
rfingers 7.12502
rthumb 35.4574 -20.3591
lclavicle 2.21645e-014 2.70347e-014
lhumerus -69.4539 -29.6944 115.297
lradius 31.9632
lwrist 11.1783
lhand 15.4455 16.0953
lfingers 7.12502
lthumb 40.2708 41.2391
rfemur 156.521 -182.552 -145.952
rtibia 35.9745
rfoot -47.0104 -29.7467
rtoes 7.47501
lfemur -73.8972 24.0759 -39.7461
ltibia 55.5216
lfoot -39.0766 31.9757
ltoes 27.4637
515
root 4.81576 15.8302 -7.66285 30.4211 -46.5917 -10.9567
lowerback -4.35968 0.508879 0.190979
upperback -8.5273 0.44886 -1.48296
thorax -6.41578 0.0894727 -1.6519
lowerneck -10.1029 3.65775 7.28382
upperneck 43.9178 0.939026 2.91411
head 18.3077 1.526 0.080469
rclavicle 1.28216e-014 4.77083e-014
rhumerus 52.2619 -44.1575 -8.04578
rradius 78.4638
rwrist -28.1277
rhand 8.1188 7.70562
rfingers 7.12502
rthumb 33.34 -19.2222
lclavicle 1.28216e-014 4.77083e-014
lhumerus -70.7226 -30.6347 116.852
lradius 33.6594
lwrist 12.2894
lhand 15.7026 15.2539
lfingers 7.12502
lthumb 40.5126 40.3232
rfemur 156.566 -183.333 -145.509
rtibia 35.591
rfoot -46.5899 -30.2332
rtoes 6.90368
lfemur -74.5948 24.2236 -39.1761
ltibia 55.8358
lfoot -36.5904 34.5858
ltoes 24.0094
516
root 4.84493 15.8141 -7.71174 30.9134 -46.4408 -11.6944
lowerback -4.41446 0.352687 0.756888
upperback -8.36429 0.253313 -1.27896
thorax -6.21326 -0.0321928 -1.75167
lowerneck -10.5436 3.84837 8.09797
upperneck 44.0541 1.15354 2.3855
head 18.5526 1.68149 -0.267331
rclavicle 3.77691e-015 1.27222e-014
rhumerus 50.0138 -44.8791 -7.21322
rradius 80.6613
rwrist -27.7893
rhand 5.06425 9.33133
rfingers 7.12502
rthumb 30.4312 -18.177
lclavicle 3.77691e-015 1.27222e-014
lhumerus -71.5515 -31.5135 117.612
lradius 35.4085
lwrist 13.4815
lhand 16.4065 14.7781
lfingers 7.12502
lthumb 41.1739 39.639
rfemur 156.663 -182.721 -144.857
rtibia 35.1452
rfoot -45.8555 -29.5822
rtoes 7.07418
lfemur -74.9313 24.4446 -38.7158
ltibia 56.1611
lfoot -37.4979 32.8936
ltoes 27.3214
